<svg width="1079" height="928" fill="none" xmlns="http://www.w3.org/2000/svg"><g opacity=".7"><g filter="url(#filter0_f)"><path d="M689.356 280.317a186.474 186.474 0 01-260.377 267.008l130.189-133.504 130.188-133.504z" fill="#AC6AFF"/></g><g filter="url(#filter1_f)"><path d="M383.237 569.692a186.472 186.472 0 01-2.775-263.699 186.475 186.475 0 01263.699-2.774L513.699 436.455 383.237 569.692z" fill="#FF82CD"/></g><g filter="url(#filter2_f)"><path d="M608.086 451.935A186.472 186.472 0 11869.01 185.462L738.548 318.699 608.086 451.935z" fill="#5AF899" fill-opacity=".7"/></g><g filter="url(#filter3_f)"><path d="M411.883 674.623a186.476 186.476 0 01-2.774-263.699 186.472 186.472 0 01263.698-2.775L542.345 541.386 411.883 674.623z" fill="#FFDF6C"/></g></g><defs><filter id="filter0_f" x="178.979" y="30.317" width="893.881" height="897.196" filterUnits="userSpaceOnUse" color-interpolation-filters="sRGB"><feFlood flood-opacity="0" result="BackgroundImageFix"/><feBlend in="SourceGraphic" in2="BackgroundImageFix" result="shape"/><feGaussianBlur stdDeviation="125" result="effect1_foregroundBlur"/></filter><filter id="filter1_f" x="0" y="-77.243" width="894.161" height="896.935" filterUnits="userSpaceOnUse" color-interpolation-filters="sRGB"><feFlood flood-opacity="0" result="BackgroundImageFix"/><feBlend in="SourceGraphic" in2="BackgroundImageFix" result="shape"/><feGaussianBlur stdDeviation="125" result="effect1_foregroundBlur"/></filter><filter id="filter2_f" x="224.849" y="-195" width="894.161" height="896.935" filterUnits="userSpaceOnUse" color-interpolation-filters="sRGB"><feFlood flood-opacity="0" result="BackgroundImageFix"/><feBlend in="SourceGraphic" in2="BackgroundImageFix" result="shape"/><feGaussianBlur stdDeviation="125" result="effect1_foregroundBlur"/></filter><filter id="filter3_f" x="28.646" y="27.687" width="894.161" height="896.935" filterUnits="userSpaceOnUse" color-interpolation-filters="sRGB"><feFlood flood-opacity="0" result="BackgroundImageFix"/><feBlend in="SourceGraphic" in2="BackgroundImageFix" result="shape"/><feGaussianBlur stdDeviation="125" result="effect1_foregroundBlur"/></filter></defs></svg>